<?xml version="1.0" encoding="UTF-8"?>
<svg version="1.1" xmlns="http://www.w3.org/2000/svg" width="600" height="600">
<path d="M0 0 C198 0 396 0 600 0 C600 198 600 396 600 600 C402 600 204 600 0 600 C0 402 0 204 0 0 Z " fill="#675061" transform="translate(0,0)"/>
<path d="M0 0 C12.21 0 24.42 0 37 0 C37 45.87 37 91.74 37 139 C25.78 139 14.56 139 3 139 C2.67 134.71 2.34 130.42 2 126 C0.68 127.65 -0.64 129.3 -2 131 C-2.66 131 -3.32 131 -4 131 C-4.33 131.99 -4.66 132.98 -5 134 C-7.58203125 135.5703125 -7.58203125 135.5703125 -10.8125 137.125 C-11.87082031 137.64320313 -12.92914063 138.16140625 -14.01953125 138.6953125 C-22.0475821 142.20955756 -32.53058026 142.37356006 -40.9375 139.875 C-52.24562669 135.32624227 -58.97835521 126.36654384 -63.67578125 115.4921875 C-70.67221739 97.041409 -70.23149595 75.62455971 -62.9375 57.3359375 C-58.6008309 48.57225203 -51.14742413 41.44934118 -42 38 C-40.96875 37.5875 -39.9375 37.175 -38.875 36.75 C-28.62449563 34.76603141 -18.42901791 35.27285161 -9 40 C-6.36 41.98 -3.72 43.96 -1 46 C-0.67 30.82 -0.34 15.64 0 0 Z " fill="#FDFDFD" transform="translate(298,208)"/>
<path d="M0 0 C8.76361252 7.2144891 14.76298373 17.57491729 18.5078125 28.22265625 C18.5078125 29.54265625 18.5078125 30.86265625 18.5078125 32.22265625 C13.86410541 33.36637777 9.21932358 34.50558717 4.57348633 35.640625 C2.99310418 36.02740572 1.41302312 36.41541882 -0.16674805 36.8046875 C-2.4372077 37.36392104 -4.70871237 37.91871722 -6.98046875 38.47265625 C-7.68681961 38.64764648 -8.39317047 38.82263672 -9.1209259 39.00292969 C-11.99217215 39.69922819 -14.52499573 40.22265625 -17.4921875 40.22265625 C-17.73453125 39.63097656 -17.976875 39.03929687 -18.2265625 38.4296875 C-20.92722844 32.06234818 -23.63383111 26.34928631 -30.04296875 22.95703125 C-36.49520949 21.02238809 -44.75993216 20.92520062 -51.1328125 23.140625 C-58.99521224 27.77704011 -62.85032931 34.72726914 -65.4921875 43.22265625 C-68.82606112 57.88286872 -68.523054 77.41656229 -60.5078125 90.44921875 C-57.58036774 94.47729196 -54.11808177 97.36432286 -49.4921875 99.22265625 C-42.16024685 99.91792648 -33.88856016 100.40719911 -27.4921875 96.22265625 C-20.86627096 90.64945542 -17.98753898 82.54332487 -16.4921875 74.22265625 C-9.77502283 74.80158544 -3.81197971 76.53561016 2.5703125 78.66015625 C4.477572 79.28474832 6.38511796 79.90846641 8.29296875 80.53125 C9.18516113 80.82370605 10.07735352 81.11616211 10.99658203 81.41748047 C14.14859754 82.42811115 17.31727053 83.34204897 20.5078125 84.22265625 C17.59134819 100.13064339 10.01199938 114.78624431 -3.4921875 124.22265625 C-15.08182408 130.61546562 -25.03741959 132.57889518 -38.10839844 132.53833008 C-40.22383874 132.53518354 -42.33785812 132.55863858 -44.453125 132.58398438 C-60.92631589 132.66287215 -76.14888371 128.63488415 -88.3671875 117.16015625 C-93.99349113 111.12783071 -97.85848923 104.56754873 -101.4921875 97.22265625 C-101.91242188 96.38089844 -102.33265625 95.53914063 -102.765625 94.671875 C-111.59389975 74.92441831 -110.68733742 49.12116588 -104.42578125 28.75390625 C-97.85141182 11.91657729 -87.311273 0.87322792 -71.1796875 -7.02734375 C-48.69560934 -16.17875802 -19.91973328 -14.20607938 0 0 Z " fill="#FDFCFD" transform="translate(196.4921875,216.77734375)"/>
<path d="M0 0 C11.68996309 -0.43258651 24.55024867 0.5293772 33.81640625 8.48046875 C40.41359881 15.343425 42.84619866 20.48566092 42.7421875 30.0546875 C42.04971566 37.89619962 38.35016421 43.20558428 32.46484375 48.1953125 C31.80484375 48.1953125 31.14484375 48.1953125 30.46484375 48.1953125 C32.64529925 50.45728036 34.96067501 52.40979419 37.40234375 54.3828125 C42.45057103 58.75361223 45.93481795 64.53803664 46.703125 71.2890625 C46.98417027 80.40084608 44.33399567 89.1673287 38.56640625 96.33984375 C28.35672545 105.35396713 16.33421687 106.40164932 3.33984375 106.5078125 C1.59960938 106.55131836 1.59960938 106.55131836 -0.17578125 106.59570312 C-12.25127456 106.68350034 -21.6959706 104.15366825 -30.46875 95.6484375 C-33.43662522 92.12513762 -35.07906339 88.52695982 -36.53515625 84.1953125 C-36.86515625 83.5353125 -37.19515625 82.8753125 -37.53515625 82.1953125 C-38.19540395 74.03653739 -38.83846918 66.08546965 -34.1015625 59.02734375 C-30.70074881 55.04983348 -26.87048674 52.08553282 -22.53515625 49.1953125 C-23.33179688 48.5765625 -23.33179688 48.5765625 -24.14453125 47.9453125 C-30.1529043 43.03335789 -33.83774162 38.96709678 -34.98046875 31.1484375 C-35.41952554 23.01634209 -33.84925795 17.40419107 -28.53515625 11.1953125 C-20.07881062 2.9569942 -11.5054943 0.63566267 0 0 Z " fill="#FCFBFC" transform="translate(221.53515625,68.8046875)"/>
<path d="M0 0 C0 20.79 0 41.58 0 63 C4.29 63 8.58 63 13 63 C13 70.26 13 77.52 13 85 C8.71 85 4.42 85 0 85 C0 91.6 0 98.2 0 105 C-8.25 105 -16.5 105 -25 105 C-25 98.4 -25 91.8 -25 85 C-42.16 85 -59.32 85 -77 85 C-77 61 -77 61 -72.5625 54.6875 C-70.7275206 53.10251077 -68.87347208 51.5392994 -67 50 C-65.47726869 48.24520861 -63.99734806 46.45235178 -62.5625 44.625 C-59.29611979 40.58364382 -55.98681996 36.58682827 -52.625 32.625 C-51.93289429 31.80926514 -51.93289429 31.80926514 -51.22680664 30.97705078 C-50.28717962 29.87024485 -49.34731858 28.76363756 -48.40722656 27.65722656 C-46.5589294 25.48057127 -44.71333031 23.3016906 -42.87402344 21.11743164 C-41.95713896 20.03812112 -41.03061501 18.96692674 -40.09472656 17.90405273 C-37.25277355 14.64810272 -34.9060836 11.40264548 -32.81591797 7.61401367 C-23.2347791 -5.1960112 -19.23612706 0 0 0 Z " fill="#FCFBFC" transform="translate(162,69)"/>
<path d="M0 0 C3.5386994 1.65139305 4.81070153 2.71605229 7 6 C7.825 5.01 8.65 4.02 9.5 3 C11.93511143 0.58211813 13.54366631 -0.49474293 17 -0.6875 C21.66824033 -0.31189446 23.85082641 1.62588544 27 5 C29.27981564 9.2885468 29.26150955 13.40046316 29.1953125 18.14453125 C29.1924826 18.91431808 29.18965271 19.68410492 29.18673706 20.47721863 C29.17559157 22.92247425 29.15049781 25.36735612 29.125 27.8125 C29.1149629 29.47590615 29.10583833 31.13931807 29.09765625 32.80273438 C29.07567073 36.86863237 29.04118014 40.93425294 29 45 C24.71 45 20.42 45 16 45 C15.67 35.1 15.34 25.2 15 15 C13.68 14.67 12.36 14.34 11 14 C8.20822431 16.79177569 8.68786516 18.63183572 8.5859375 22.5390625 C8.54726563 23.84101563 8.50859375 25.14296875 8.46875 26.484375 C8.43729237 27.86457862 8.40604509 29.24478704 8.375 30.625 C8.33682066 32.01304541 8.29776895 33.40106711 8.2578125 34.7890625 C8.16327312 38.19248027 8.08053771 41.59622212 8 45 C3.71 45 -0.58 45 -5 45 C-5.33 35.1 -5.66 25.2 -6 15 C-7.65 14.34 -9.3 13.68 -11 13 C-12.12183708 16.36551123 -12.20800968 19.09060232 -12.31640625 22.63671875 C-12.35830078 23.93544922 -12.40019531 25.23417969 -12.44335938 26.57226562 C-12.48316987 27.94400761 -12.52288216 29.31575244 -12.5625 30.6875 C-12.60570835 32.07097645 -12.64932339 33.45444027 -12.69335938 34.83789062 C-12.79957965 38.22513714 -12.90030688 41.61255509 -13 45 C-17.29 45 -21.58 45 -26 45 C-26 30.48 -26 15.96 -26 1 C-22.04 1 -18.08 1 -14 1 C-13.67 2.32 -13.34 3.64 -13 5 C-12.154375 4.175 -11.30875 3.35 -10.4375 2.5 C-6.97233184 -0.37674338 -4.5142179 -0.65661351 0 0 Z " fill="#F9F7F9" transform="translate(371,388)"/>
<path d="M0 0 C3 1.8125 3 1.8125 5 4 C5 4.99 5 5.98 5 7 C5.66 7 6.32 7 7 7 C7.2475 6.401875 7.495 5.80375 7.75 5.1875 C9.27404105 2.52042816 10.26745935 1.43817929 13 0 C17.68312676 -0.52034742 19.8453757 -0.70281479 23.875 1.75 C28.22344481 6.35423568 28.27599324 10.32005158 28.1953125 16.484375 C28.1924826 17.29996887 28.18965271 18.11556274 28.18673706 18.95587158 C28.17556558 21.55406528 28.15046675 24.15191095 28.125 26.75 C28.11496627 28.51431793 28.10584111 30.27864128 28.09765625 32.04296875 C28.07563619 36.36211273 28.04112733 40.68099741 28 45 C24.04 45 20.08 45 16 45 C15.97494385 44.13721436 15.9498877 43.27442871 15.92407227 42.38549805 C15.82888615 39.18176231 15.72965556 35.97818463 15.62768555 32.7746582 C15.58439782 31.38864017 15.54271836 30.00257094 15.50268555 28.61645508 C15.44483416 26.62308202 15.38070224 24.62989435 15.31640625 22.63671875 C15.26141968 20.83787231 15.26141968 20.83787231 15.20532227 19.00268555 C15.12266975 15.95005651 15.12266975 15.95005651 14 13 C12.05925139 13.27617533 12.05925139 13.27617533 10 14 C7.64290358 17.53564463 7.69990265 19.22025255 7.5859375 23.41796875 C7.54726562 24.67158203 7.50859375 25.92519531 7.46875 27.21679688 C7.42234375 29.18229492 7.42234375 29.18229492 7.375 31.1875 C7.33680662 32.5228116 7.29775409 33.85809892 7.2578125 35.19335938 C7.16340847 38.46209888 7.07782983 41.73083064 7 45 C3.04 45 -0.92 45 -5 45 C-5.01981934 44.13197754 -5.03963867 43.26395508 -5.06005859 42.36962891 C-5.13809872 39.15273733 -5.22478881 35.93622955 -5.31738281 32.71972656 C-5.35569327 31.32691428 -5.39054259 29.93400235 -5.421875 28.54101562 C-5.46747907 26.54013692 -5.52651623 24.53957854 -5.5859375 22.5390625 C-5.63306885 20.73236084 -5.63306885 20.73236084 -5.68115234 18.88916016 C-5.70915226 15.8739982 -5.70915226 15.8739982 -8 14 C-10.08333333 14.16666667 -10.08333333 14.16666667 -12 15 C-13.39560045 17.79120091 -13.21808288 20.20205692 -13.31640625 23.3203125 C-13.35830078 24.57714844 -13.40019531 25.83398438 -13.44335938 27.12890625 C-13.48267578 28.44761719 -13.52199219 29.76632812 -13.5625 31.125 C-13.60569512 32.46485751 -13.64930973 33.80470156 -13.69335938 35.14453125 C-13.79970981 38.42957815 -13.90173808 41.71470281 -14 45 C-17.96 45 -21.92 45 -26 45 C-26 30.48 -26 15.96 -26 1 C-22.37 1 -18.74 1 -15 1 C-14.67 2.65 -14.34 4.3 -14 6 C-13.071875 4.7934375 -13.071875 4.7934375 -12.125 3.5625 C-8.69697783 -0.57129144 -5.16191434 -0.73036647 0 0 Z " fill="#FCFBFC" transform="translate(247,388)"/>
<path d="M0 0 C4.29 0 8.58 0 13 0 C13 20.13 13 40.26 13 61 C9.04 61 5.08 61 1 61 C0.67 60.01 0.34 59.02 0 58 C-0.433125 58.474375 -0.86625 58.94875 -1.3125 59.4375 C-3.80980691 61.74982122 -5.97111649 61.99673017 -9.3125 62.375 C-13.06829815 61.99305443 -14.97674316 61.26938651 -17.7253418 58.6640625 C-22.23866382 52.77193399 -22.49744091 45.05957041 -22.4375 37.9375 C-22.45748047 37.09123047 -22.47746094 36.24496094 -22.49804688 35.37304688 C-22.49247939 28.15202065 -20.61587385 22.82797173 -15.6875 17.5 C-12.16900883 15.53619097 -9.9778075 15.50277406 -6 16 C-4.35 16.99 -2.7 17.98 -1 19 C-0.67 12.73 -0.34 6.46 0 0 Z " fill="#FAF8FA" transform="translate(200,372)"/>
<path d="M0 0 C4.2765938 3.04620486 6.77852278 7.38640788 8.68359375 12.19921875 C8.37109375 15.07421875 8.37109375 15.07421875 7.68359375 17.19921875 C6.22652649 17.70289632 4.76789279 18.20204431 3.30859375 18.69921875 C2.49648437 18.97765625 1.684375 19.25609375 0.84765625 19.54296875 C-1.31640625 20.19921875 -1.31640625 20.19921875 -3.31640625 20.19921875 C-3.99703125 18.77609375 -3.99703125 18.77609375 -4.69140625 17.32421875 C-6.11878879 14.19608196 -6.11878879 14.19608196 -8.31640625 12.19921875 C-11.78597367 11.88396657 -11.78597367 11.88396657 -15.31640625 13.19921875 C-19.17819369 17.20652282 -19.60226891 22.2290026 -19.75390625 27.57421875 C-19.57190216 33.35790413 -18.77910484 38.91232452 -16.31640625 44.19921875 C-13.51770598 45.59856888 -11.41141833 45.4518728 -8.31640625 45.19921875 C-6.03995456 43.89838921 -5.47025073 42.68977944 -4.6953125 40.21875 C-4.18361176 38.22488162 -3.74546391 36.2124893 -3.31640625 34.19921875 C-1.89849217 34.65367839 -0.48212579 35.11296819 0.93359375 35.57421875 C1.7225 35.82945312 2.51140625 36.0846875 3.32421875 36.34765625 C5.54987333 37.15095542 7.59291047 38.09633537 9.68359375 39.19921875 C7.83361334 47.07565049 6.26638132 53.23952467 -0.19140625 58.57421875 C-6.16107508 61.64950269 -14.2731842 61.36726068 -20.6015625 59.5390625 C-25.81328377 56.8931117 -29.06348347 52.34627643 -31.17700195 47.03759766 C-33.25770489 40.50865824 -33.80392675 34.52929133 -33.75390625 27.69921875 C-33.77388672 26.73113281 -33.79386719 25.76304687 -33.81445312 24.765625 C-33.80919353 16.92882411 -32.35989286 9.97483634 -27.3515625 3.76171875 C-18.82994537 -2.988077 -10.07762056 -5.77891722 0 0 Z " fill="#FAF9FA" transform="translate(122.31640625,373.80078125)"/>
<path d="M0 0 C1.06686035 0.01135986 1.06686035 0.01135986 2.15527344 0.02294922 C9.48173496 0.25305587 13.58632204 1.83632204 18.6875 6.9375 C21.15348994 12.69147652 21.19318194 18.62123673 19.59765625 24.67578125 C15.99311143 32.96457325 7.9225729 38.82493925 1.1875 44.4375 C7.7875 44.7675 14.3875 45.0975 21.1875 45.4375 C21.1875 49.7275 21.1875 54.0175 21.1875 58.4375 C7.6575 58.4375 -5.8725 58.4375 -19.8125 58.4375 C-18.07015999 46.24111994 -12.8659464 39.76579787 -4.0625 31.4375 C-2.33672005 29.77271963 -0.61266762 28.10614595 1.109375 26.4375 C1.86831055 25.715625 2.62724609 24.99375 3.40917969 24.25 C5.79044282 21.82296849 6.160241 20.87364407 6.375 17.4375 C6.51233785 14.32125675 6.51233785 14.32125675 4.1875 12.4375 C1.10402174 12.27068891 1.10402174 12.27068891 -1.8125 12.4375 C-2.8025 14.7475 -3.7925 17.0575 -4.8125 19.4375 C-9.4325 19.4375 -14.0525 19.4375 -18.8125 19.4375 C-18.50725569 12.82387328 -17.67310634 8.17536376 -12.8125 3.4375 C-8.70676397 0.30127587 -5.021926 -0.07395543 0 0 Z " fill="#FAF8FA" transform="translate(191.8125,471.5625)"/>
<path d="M0 0 C3.96 0 7.92 0 12 0 C12 11.55 12 23.1 12 35 C13.98 35 15.96 35 18 35 C18 38.96 18 42.92 18 47 C16.02 47 14.04 47 12 47 C12 50.63 12 54.26 12 58 C8.04 58 4.08 58 0 58 C0 54.37 0 50.74 0 47 C-7.92 47 -15.84 47 -24 47 C-25.2207948 38.17271452 -24.93008168 33.47709201 -19.85522461 26.28442383 C-17.53211941 23.21721692 -15.16190224 20.19362504 -12.74511719 17.19970703 C-10.10805613 13.8757115 -7.68206886 10.41266222 -5.25 6.9375 C-1.15990412 1.15990412 -1.15990412 1.15990412 0 0 Z " fill="#FCFAFC" transform="translate(264,472)"/>
<path d="M0 0 C3.63308339 2.70152354 6.04567088 5.00116821 7.02319336 9.52001953 C7.47211243 13.08756378 7.6499399 16.58542224 7.75390625 20.1796875 C7.77468735 20.85927521 7.79546844 21.53886292 7.81687927 22.23904419 C7.8817363 24.38843666 7.94095941 26.5379407 8 28.6875 C8.04324612 30.1536569 8.08686225 31.61980294 8.13085938 33.0859375 C8.23735104 36.66134275 8.33879409 40.23687037 8.4375 43.8125 C6.47983719 43.89332094 4.52123272 43.95160778 2.5625 44 C0.92667969 44.05220703 0.92667969 44.05220703 -0.7421875 44.10546875 C-1.67289063 44.00878906 -2.60359375 43.91210938 -3.5625 43.8125 C-4.2225 42.8225 -4.8825 41.8325 -5.5625 40.8125 C-6.160625 41.4725 -6.75875 42.1325 -7.375 42.8125 C-12.01025943 45.72089807 -16.22295749 45.61543872 -21.5625 44.8125 C-25.25523914 42.70236335 -26.96577537 40.68926373 -28.5625 36.8125 C-28.828125 34.375 -28.828125 34.375 -28.8125 31.8125 C-28.81765625 30.966875 -28.8228125 30.12125 -28.828125 29.25 C-28.44261673 25.71239471 -27.4825665 23.69550221 -24.9140625 21.23046875 C-21.75848846 19.32768905 -18.42876117 18.23190369 -14.9375 17.125 C-14.256875 16.90005859 -13.57625 16.67511719 -12.875 16.44335938 C-7.85849639 14.8125 -7.85849639 14.8125 -5.5625 14.8125 C-5.8925 13.1625 -6.2225 11.5125 -6.5625 9.8125 C-9.43663125 9.47852213 -9.43663125 9.47852213 -12.5625 9.8125 C-13.2740625 10.8025 -13.2740625 10.8025 -14 11.8125 C-14.515625 12.4725 -15.03125 13.1325 -15.5625 13.8125 C-19.74185717 14.19947752 -23.49433621 13.79872152 -27.5625 12.8125 C-27.31489109 8.60314851 -26.98147739 6.33622173 -24.3125 3 C-17.39311845 -2.50405351 -8.22881732 -2.74293911 0 0 Z " fill="#F9F7F9" transform="translate(164.5625,389.1875)"/>
<path d="M0 0 C4.41725638 1.48398986 7.0315818 3.60171212 9.375 7.625 C9.91125 8.73875 10.4475 9.8525 11 11 C11.33 11.66 11.66 12.32 12 13 C12.90829897 22.77204404 13.72057544 34.5667646 8 43 C4.2553932 46.7446068 1.47398987 47.87918116 -3.8125 48.3125 C-8.1858685 48.25622504 -10.62397294 46.82644126 -14 44 C-19.63343831 38.16536747 -19.33922782 30.03354607 -19.3125 22.4375 C-19.32861328 21.51775391 -19.34472656 20.59800781 -19.36132812 19.65039062 C-19.36584842 13.36266497 -18.50124621 9.14923746 -14.4921875 4.1015625 C-9.88709903 -0.1030835 -6.16514463 -1.25485245 0 0 Z " fill="#675261" transform="translate(286,273)"/>
<path d="M0 0 C4.29 0 8.58 0 13 0 C13.06058594 2.07023437 13.12117188 4.14046875 13.18359375 6.2734375 C13.24616529 8.27572665 13.30876944 10.27801494 13.37231445 12.28027344 C13.41565846 13.6731259 13.45733396 15.06603131 13.49731445 16.45898438 C13.55502932 18.45976651 13.61921869 20.46035859 13.68359375 22.4609375 C13.72025146 23.66540527 13.75690918 24.86987305 13.79467773 26.11083984 C13.81052987 28.93996367 13.81052987 28.93996367 15 31 C16.65 30.67 18.3 30.34 20 30 C21.07955212 26.76134365 21.20441741 24.20844162 21.31640625 20.80078125 C21.35830078 19.59228516 21.40019531 18.38378906 21.44335938 17.13867188 C21.48267578 15.87603516 21.52199219 14.61339844 21.5625 13.3125 C21.60568359 12.03826172 21.64886719 10.76402344 21.69335938 9.45117188 C21.79954789 6.30091273 21.90028813 3.1504708 22 0 C26.29 0 30.58 0 35 0 C35 14.52 35 29.04 35 44 C31.04 44 27.08 44 23 44 C22.505 41.525 22.505 41.525 22 39 C21.38125 39.804375 20.7625 40.60875 20.125 41.4375 C17.99088123 44.01099616 17.24326733 44.82902021 14.01171875 45.2734375 C9.66640351 45.46331682 7.65517968 45.48789976 4.0625 42.8125 C0.2318294 37.58885827 -0.2841372 33.22116646 -0.1953125 26.85546875 C-0.1924826 26.08568192 -0.18965271 25.31589508 -0.18673706 24.52278137 C-0.17559157 22.07752575 -0.15049781 19.63264388 -0.125 17.1875 C-0.1149629 15.52409385 -0.10583833 13.86068193 -0.09765625 12.19726562 C-0.07567073 8.13136763 -0.04118014 4.06574706 0 0 Z " fill="#F7F6F8" transform="translate(303,389)"/>
<path d="M0 0 C3.96 0 7.92 0 12 0 C12 19.14 12 38.28 12 58 C7.38 58 2.76 58 -2 58 C-2 45.79 -2 33.58 -2 21 C-6.95 23.97 -6.95 23.97 -12 27 C-13.32 27.33 -14.64 27.66 -16 28 C-16.66956549 23.50241365 -16.9545473 19.46854012 -16 15 C-13.42845036 12.57867835 -10.880552 11.22187144 -7.734375 9.6328125 C-4.7218238 7.83388907 -3.98041839 6.69282753 -2.5625 3.5625 C-1.716875 2.386875 -0.87125 1.21125 0 0 Z " fill="#FAF8FA" transform="translate(351,472)"/>
<path d="M0 0 C3.63 0 7.26 0 11 0 C11 19.14 11 38.28 11 58 C6.38 58 1.76 58 -3 58 C-3.33 46.12 -3.66 34.24 -4 22 C-8.95 24.97 -8.95 24.97 -14 28 C-14.99 28 -15.98 28 -17 28 C-17 23.71 -17 19.42 -17 15 C-15.63875 14.319375 -14.2775 13.63875 -12.875 12.9375 C-7.02677673 9.70486005 -3.65414679 5.48122019 0 0 Z " fill="#FAF8F9" transform="translate(306,472)"/>
<path d="M0 0 C3.96 0 7.92 0 12 0 C12 19.14 12 38.28 12 58 C7.38 58 2.76 58 -2 58 C-2 45.79 -2 33.58 -2 21 C-6.95 23.97 -6.95 23.97 -12 27 C-13.32 27.33 -14.64 27.66 -16 28 C-16.59691463 23.52977267 -16.88016298 19.44323241 -16 15 C-13.65629574 12.72651909 -11.42773149 11.58384508 -8.484375 10.1953125 C-3.86385832 7.97223372 -2.22035777 4.44071555 0 0 Z " fill="#FAF9FB" transform="translate(101,472)"/>
<path d="M0 0 C3.63 0 7.26 0 11 0 C11 19.14 11 38.28 11 58 C6.71 58 2.42 58 -2 58 C-2 45.46 -2 32.92 -2 20 C-2.66 20 -3.32 20 -4 20 C-4 20.66 -4 21.32 -4 22 C-5.57421875 23.25390625 -5.57421875 23.25390625 -7.6875 24.5625 C-8.37199219 24.99691406 -9.05648437 25.43132812 -9.76171875 25.87890625 C-12 27 -12 27 -17 28 C-17 23.71 -17 19.42 -17 15 C-15.63875 14.319375 -14.2775 13.63875 -12.875 12.9375 C-7.02677673 9.70486005 -3.65414679 5.48122019 0 0 Z " fill="#FCFBFC" transform="translate(147,472)"/>
<path d="M0 0 C3.03571123 1.3186546 3.87791893 2.28845196 6 5 C6.64927702 8.97682173 6.10275875 11.58301703 4 15 C4.495 15.53625 4.99 16.0725 5.5 16.625 C7.4203453 19.66554673 7.36914086 21.45624771 7 25 C6.11946862 28.08185984 5.15146336 28.89397565 2.5 30.75 C-3.09113475 32.74683384 -8.53466395 33.12994569 -14 30.625 C-17.93659942 27.42651297 -17.93659942 27.42651297 -18.30078125 24.9765625 C-18.33271567 18.56838927 -18.33271567 18.56838927 -16.5 15.4375 C-16.005 14.963125 -15.51 14.48875 -15 14 C-15.66 13.34 -16.32 12.68 -17 12 C-17.77777778 5.11111111 -17.77777778 5.11111111 -15.25 1.5 C-10.20683833 -0.82761308 -5.45138034 -0.84603069 0 0 Z " fill="#F7F4F7" transform="translate(497,173)"/>
<path d="M0 0 C3.625 1.5625 3.625 1.5625 6 4 C7.35763349 8.66686514 7.2240673 11.6826929 5 16 C5.495 16.37125 5.99 16.7425 6.5 17.125 C8 19 8 19 8.375 21.875 C7.95174839 25.40209676 7.1727054 27.20652163 5 30 C0.36849823 32.93430686 -4.70553609 32.52630428 -10 32 C-13.08073848 30.6168113 -14.6384567 29.3615433 -17 27 C-17.1953125 24.8359375 -17.1953125 24.8359375 -17.125 22.375 C-17.10695313 21.55773437 -17.08890625 20.74046875 -17.0703125 19.8984375 C-17.04710937 19.27195313 -17.02390625 18.64546875 -17 18 C-15.68 17.34 -14.36 16.68 -13 16 C-13.495 15.505 -13.99 15.01 -14.5 14.5 C-16.6087853 10.98535783 -16.82781305 7.99973037 -16 4 C-12.11772483 -1.35486231 -6.02257342 -0.85532888 0 0 Z " fill="#F6F3F6" transform="translate(496,121)"/>
<path d="M0 0 C1.11246094 0.00128906 2.22492188 0.00257813 3.37109375 0.00390625 C6.8701779 0.47930202 8.79265341 1.26694749 11.5625 3.4375 C12.61683631 7.23311071 12.97218788 9.45880118 11.4375 13.125 C11.14875 13.888125 10.86 14.65125 10.5625 15.4375 C11.036875 16.035625 11.51125 16.63375 12 17.25 C14.00137487 20.05192482 13.68887966 22.0894503 13.375 25.4375 C12.11711814 28.53382457 10.37610845 29.69046323 7.5625 31.4375 C1.46624249 32.46059877 -4.42991725 32.62717867 -9.8125 29.4375 C-12.05925128 25.28965148 -12.03316305 23.12834654 -11.4375 18.4375 C-9.9375 15.9375 -9.9375 15.9375 -8.4375 14.4375 C-9.0975 13.7775 -9.7575 13.1175 -10.4375 12.4375 C-11.12072129 5.37754665 -11.12072129 5.37754665 -8.81640625 2.20703125 C-5.71729235 -0.09822096 -3.83075308 -0.06642924 0 0 Z " fill="#F9F5F8" transform="translate(490.4375,224.5625)"/>
<path d="M0 0 C4.91462317 1.21159113 8.0361306 4.65471801 10.6875 8.8046875 C11.7618399 14.05701589 12.58291312 19.05240888 9.9765625 23.9453125 C5.35209671 30.21653927 5.35209671 30.21653927 0.89453125 30.93359375 C-6.6159861 31.42048246 -6.6159861 31.42048246 -9.99609375 28.83984375 C-14.3760855 23.80421914 -16.06742126 20.51177397 -15.9609375 13.8671875 C-15.51578545 8.9870021 -13.35318828 6.21532228 -10.125 2.6796875 C-6.39937453 0.33392332 -4.32059236 -0.24814213 0 0 Z " fill="#685363" transform="translate(227.75,126.4453125)"/>
<path d="M0 0 C4.29 0 8.58 0 13 0 C13 14.52 13 29.04 13 44 C8.71 44 4.42 44 0 44 C0 29.48 0 14.96 0 0 Z " fill="#F6F4F5" transform="translate(283,389)"/>
<path d="M0 0 C1.20527344 -0.01933594 2.41054688 -0.03867187 3.65234375 -0.05859375 C7.65121795 0.52314396 9.30417906 1.5196493 12.0625 4.4375 C12.74907776 9.16725788 12.59717482 11.34676338 10.5 15.625 C7.61870791 18.9495678 4.73803796 21.03426364 1.0625 23.4375 C5.0225 23.7675 8.9825 24.0975 13.0625 24.4375 C13.0625 26.7475 13.0625 29.0575 13.0625 31.4375 C4.4825 31.4375 -4.0975 31.4375 -12.9375 31.4375 C-10.98481455 21.67407274 -4.58897964 17.15753818 3.0625 11.4375 C2.7325 9.7875 2.4025 8.1375 2.0625 6.4375 C0.7425 6.4375 -0.5775 6.4375 -1.9375 6.4375 C-2.5975 7.7575 -3.2575 9.0775 -3.9375 10.4375 C-6.9075 10.4375 -9.8775 10.4375 -12.9375 10.4375 C-11.47973992 3.99905963 -11.47973992 3.99905963 -9.29296875 1.734375 C-6.0992407 -0.02402916 -3.63040846 0.0038745 0 0 Z " fill="#F7F4F7" transform="translate(490.9375,276.5625)"/>
<path d="M0 0 C5.55319149 2.10638298 5.55319149 2.10638298 7 5 C7.79390441 11.69148003 7.79390441 11.69148003 5.80078125 14.9765625 C3.217552 18.0347936 0.44007132 20.91138527 -3 23 C-3.66 23 -4.32 23 -5 23 C-5 23.66 -5 24.32 -5 25 C-0.71 25 3.58 25 8 25 C8 26.98 8 28.96 8 31 C-0.58 31 -9.16 31 -18 31 C-16.3193078 22.59653898 -10.13032165 17.83338324 -3.6015625 12.640625 C-1.78615819 10.78094254 -1.38602821 9.53675684 -1 7 C-2.98 7 -4.96 7 -7 7 C-7.33 7.99 -7.66 8.98 -8 10 C-10.97 10 -13.94 10 -17 10 C-17.375 7.8125 -17.375 7.8125 -17 5 C-12.22476628 -0.80771669 -7.22064322 -1.00703333 0 0 Z " fill="#F8F6F9" transform="translate(496,69)"/>
<path d="M0 0 C3.76110572 0.02155361 5.955079 0.3286021 8.875 2.75 C12.25118294 6.38588932 12.60339822 8.36552315 12.53125 13.34375 C12.11911101 17.17075493 10.17520018 19.41275749 7.6875 22.1875 C3.93764976 24.06242512 0.40937683 24.14759442 -3.6875 23.375 C-7.25802209 21.44158451 -9.38201966 19.29144101 -10.6875 15.375 C-11.08906452 12.31163635 -11.1859547 9.43004492 -10.6875 6.375 C-8.25 3.375 -8.25 3.375 -5.6875 1.375 C-4.05531064 -0.25718936 -2.24806873 0.08736889 0 0 Z " fill="#685464" transform="translate(224.6875,86.625)"/>
<path d="M0 0 C0.33 0 0.66 0 1 0 C1 10.23 1 20.46 1 31 C-7.58 31 -16.16 31 -25 31 C-22.95019498 26.90038996 -20.43198682 23.8393558 -17.4375 20.4375 C-16.35442783 19.19231089 -15.2724084 17.94620536 -14.19140625 16.69921875 C-13.38533936 15.76988525 -13.38533936 15.76988525 -12.56298828 14.82177734 C-9.55017564 11.31012349 -6.64935425 7.7087243 -3.7421875 4.109375 C-2 2 -2 2 0 0 Z " fill="#665261" transform="translate(136,101)"/>
<path d="M0 0 C2.64 0 5.28 0 8 0 C8 10.23 8 20.46 8 31 C5.03 31 2.06 31 -1 31 C-1.33 24.73 -1.66 18.46 -2 12 C-3.98 12.99 -5.96 13.98 -8 15 C-8.66 15 -9.32 15 -10 15 C-10.5625 11.875 -10.5625 11.875 -10 8 C-7.82109023 6.08480749 -5.58301408 4.69921774 -3.06640625 3.26171875 C-0.86238824 2.16671246 -0.86238824 2.16671246 0 0 Z " fill="#F8F4F7" transform="translate(461,225)"/>
<path d="M0 0 C2.64 0 5.28 0 8 0 C8 10.23 8 20.46 8 31 C5.03 31 2.06 31 -1 31 C-1.33 24.73 -1.66 18.46 -2 12 C-3.98 12.99 -5.96 13.98 -8 15 C-8.66 15 -9.32 15 -10 15 C-10.5 11.8125 -10.5 11.8125 -10 8 C-8.09518008 6.36046322 -6.18207414 5.27904849 -3.9453125 4.140625 C-1.69009413 3.00876662 -1.69009413 3.00876662 0 0 Z " fill="#F8F5F8" transform="translate(461,173)"/>
<path d="M0 0 C4.62 0 9.24 0 14 0 C14 5.28 14 10.56 14 16 C9.38 16 4.76 16 0 16 C0 10.72 0 5.44 0 0 Z " fill="#FBFAFB" transform="translate(220,514)"/>
<path d="M0 0 C2.4375 0.8125 2.4375 0.8125 4.4375 2.8125 C4.73828125 5.9296875 4.73828125 5.9296875 4.75 9.6875 C4.76675781 10.92242187 4.78351563 12.15734375 4.80078125 13.4296875 C4.42333035 16.94444532 3.83476471 18.29505579 1.4375 20.8125 C-0.9375 20.5 -0.9375 20.5 -3.5625 19.8125 C-6.00758878 16.14486683 -5.86135724 14.17818225 -5.875 9.8125 C-5.89175781 8.575 -5.90851563 7.3375 -5.92578125 6.0625 C-5.5625 2.8125 -5.5625 2.8125 -4.203125 0.86328125 C-2.5625 -0.1875 -2.5625 -0.1875 0 0 Z " fill="#695664" transform="translate(195.5625,401.1875)"/>
<path d="M0 0 C4.29 0 8.58 0 13 0 C13 3.96 13 7.92 13 12 C8.71 12 4.42 12 0 12 C0 8.04 0 4.08 0 0 Z " fill="#F0EDF0" transform="translate(283,372)"/>
<path d="M0 0 C0.33 0 0.66 0 1 0 C1 5.61 1 11.22 1 17 C-2.96 17 -6.92 17 -11 17 C-9.35196897 12.87992244 -8.18554968 10.68641931 -5.5 7.375 C-3.54847024 4.95212619 -1.72828558 2.59242838 0 0 Z " fill="#695661" transform="translate(263,490)"/>
<path d="M0 0 C0.43089173 4.39509566 0.46051828 6.36843207 -2.1875 10 C-5 12 -5 12 -7.8125 11.8125 C-8.534375 11.544375 -9.25625 11.27625 -10 11 C-10.33 9.02 -10.66 7.04 -11 5 C-7.29318258 1.89428811 -4.9778821 0 0 0 Z " fill="#6A5A64" transform="translate(159,413)"/>
<path d="M0 0 C3 0.125 3 0.125 4 1.125 C4.04063832 2.79117115 4.042721 4.45888095 4 6.125 C-1.04468729 8.33974076 -3.85910687 7.97572153 -9 6.125 C-8.01 5.795 -7.02 5.465 -6 5.125 C-4.8499169 3.15827085 -4.8499169 3.15827085 -4 1.125 C-3 0.125 -3 0.125 0 0 Z " fill="#6B5965" transform="translate(155,397.875)"/>
<path d="M0 0 C4.55555556 0.55555556 4.55555556 0.55555556 6 2 C5.71269945 4.33944736 5.38063221 6.6739143 5 9 C2.625 9.125 2.625 9.125 0 9 C-2 7 -2 7 -2.25 4.5 C-2 2 -2 2 0 0 Z " fill="#675760" transform="translate(489,190)"/>
<path d="M0 0 C4.55555556 0.55555556 4.55555556 0.55555556 6 2 C6.1875 4.4375 6.1875 4.4375 6 7 C5.34 7.66 4.68 8.32 4 9 C-0.55555556 8.44444444 -0.55555556 8.44444444 -2 7 C-2.1875 4.5625 -2.1875 4.5625 -2 2 C-1.34 1.34 -0.68 0.68 0 0 Z " fill="#695D65" transform="translate(489,242)"/>
<path d="M0 0 C0.78375 0.04125 1.5675 0.0825 2.375 0.125 C3 3.5 3 3.5 3.375 7.125 C2.715 7.785 2.055 8.445 1.375 9.125 C-1.25 8.75 -1.25 8.75 -3.625 8.125 C-4.25 5.25 -4.25 5.25 -4.625 2.125 C-2.625 0.125 -2.625 0.125 0 0 Z " fill="#6A6169" transform="translate(491.625,138.875)"/>
<path d="M0 0 C0.66 0.33 1.32 0.66 2 1 C1.835 1.515625 1.67 2.03125 1.5 2.5625 C0.84951 5.73363876 0.9379266 8.77218334 1 12 C0.67 10.68 0.34 9.36 0 8 C-1.98 8.99 -1.98 8.99 -4 10 C-4.93423645 6.98968256 -5.04449911 6.13349732 -4 3 C-1.9375 1.3125 -1.9375 1.3125 0 0 Z " fill="#6F5967" transform="translate(135,412)"/>
<path d="M0 0 C1.67542976 0.28604898 3.34385343 0.61781233 5 1 C5 2.65 5 4.3 5 6 C3.34385343 6.38218767 1.67542976 6.71395102 0 7 C-1 6 -1 6 -1.125 3.5 C-1 1 -1 1 0 0 Z " fill="#655963" transform="translate(489,230)"/>
<path d="M0 0 C1.67542976 0.28604898 3.34385343 0.61781233 5 1 C5 2.65 5 4.3 5 6 C3.34385343 6.38218767 1.67542976 6.71395102 0 7 C-1 6 -1 6 -1.125 3.5 C-1 1 -1 1 0 0 Z " fill="#685862" transform="translate(489,178)"/>
<path d="M0 0 C1.98 0 3.96 0 6 0 C6 1.98 6 3.96 6 6 C4.33388095 6.042721 2.66617115 6.04063832 1 6 C0 5 0 5 -0.0625 2.4375 C-0.041875 1.633125 -0.02125 0.82875 0 0 Z " fill="#655460" transform="translate(488,127)"/>
<path d="M0 0 C2.875 -0.1875 2.875 -0.1875 6 0 C6.66 0.99 7.32 1.98 8 3 C5.66666667 3 3.33333333 3 1 3 C1 3.66 1 4.32 1 5 C0.01 4.67 -0.98 4.34 -2 4 C-1.34 2.68 -0.68 1.36 0 0 Z " fill="#6C5C67" transform="translate(190,483)"/>
<path d="M0 0 C2.125 0.375 2.125 0.375 4 1 C3.01 1 2.02 1 1 1 C0.83318891 3.91652174 0.83318891 3.91652174 1 7 C1.66 7.66 2.32 8.32 3 9 C-0.875 8.125 -0.875 8.125 -2 7 C-2.1875 4.5625 -2.1875 4.5625 -2 2 C-1.34 1.34 -0.68 0.68 0 0 Z " fill="#796B73" transform="translate(489,190)"/>
<path d="M0 0 C1.65 0.33 3.3 0.66 5 1 C5.33 2.65 5.66 4.3 6 6 C5.34 6 4.68 6 4 6 C3.67 5.34 3.34 4.68 3 4 C0.97536745 3.34786708 0.97536745 3.34786708 -1 3 C-0.67 2.01 -0.34 1.02 0 0 Z " fill="#786A73" transform="translate(489,282)"/>
<path d="M0 0 C1.65 0 3.3 0 5 0 C5 1.98 5 3.96 5 6 C3.68 5.67 2.36 5.34 1 5 C0.67 3.35 0.34 1.7 0 0 Z " fill="#635663" transform="translate(489,139)"/>
<path d="M0 0 C0.66 0.33 1.32 0.66 2 1 C2 4.3 2 7.6 2 11 C1.34 11 0.68 11 0 11 C-0.19406478 9.35492782 -0.38007935 7.70890406 -0.5625 6.0625 C-0.66691406 5.14597656 -0.77132812 4.22945312 -0.87890625 3.28515625 C-0.91886719 2.53105469 -0.95882812 1.77695313 -1 1 C-0.67 0.67 -0.34 0.34 0 0 Z " fill="#715E6C" transform="translate(237,137)"/>
<path d="M0 0 C1.32 0 2.64 0 4 0 C4 0.66 4 1.32 4 2 C6.64 2 9.28 2 12 2 C12 2.33 12 2.66 12 3 C8.04 3 4.08 3 0 3 C0 2.01 0 1.02 0 0 Z " fill="#837480" transform="translate(484,274)"/>
<path d="M0 0 C0.33 0.99 0.66 1.98 1 3 C-1.64 4.98 -4.28 6.96 -7 9 C-5.04783565 5.09567131 -3.12613393 2.96160056 0 0 Z " fill="#E5DFE5" transform="translate(195,496)"/>
<path d="M0 0 C1.65 0 3.3 0 5 0 C5 0.99 5 1.98 5 3 C3.35 3.33 1.7 3.66 0 4 C0 2.68 0 1.36 0 0 Z " fill="#6D5E6B" transform="translate(318,417)"/>
<path d="M0 0 C0 0.99 0 1.98 0 3 C-0.99 3.495 -0.99 3.495 -2 4 C-1.34 2.68 -0.68 1.36 0 0 Z M-3 4 C-3 7 -3 7 -5 10 C-5.66 10 -6.32 10 -7 10 C-5.84826645 7.53199953 -4.95216435 5.95216435 -3 4 Z " fill="#70626B" transform="translate(128,110)"/>
<path d="M0 0 C2.97 0.495 2.97 0.495 6 1 C5.67 2.32 5.34 3.64 5 5 C5 4.01 5 3.02 5 2 C3.35 2.66 1.7 3.32 0 4 C0 2.68 0 1.36 0 0 Z " fill="#72636D" transform="translate(489,75)"/>
<path d="M0 0 C0.33 0 0.66 0 1 0 C1.125 2.375 1.125 2.375 1 5 C0.34 5.66 -0.32 6.32 -1 7 C-1.99 7 -2.98 7 -4 7 C-3.67 5.68 -3.34 4.36 -3 3 C-2.01 3.33 -1.02 3.66 0 4 C0 2.68 0 1.36 0 0 Z " fill="#726871" transform="translate(494,141)"/>
<path d="M0 0 C0.33 1.32 0.66 2.64 1 4 C-0.65 5.32 -2.3 6.64 -4 8 C-4.66 7.67 -5.32 7.34 -6 7 C-4.02 4.69 -2.04 2.38 0 0 Z " fill="#EEE8ED" transform="translate(102,110)"/>
</svg>
